<?xml version="1.0"?>
<svg xmlns="http://www.w3.org/2000/svg" xmlns:xlink="http://www.w3.org/1999/xlink" xmlns:svgjs="http://svgjs.com/svgjs" version="1.1" width="512" height="512" x="0" y="0" viewBox="0 0 512 512" style="enable-background:new 0 0 512 512" xml:space="preserve" class=""><g><g xmlns="http://www.w3.org/2000/svg"><path d="m456 20c-8.284 0-15 6.716-15 15s6.716 15 15 15c11.684 0 21.519 8.058 24.246 18.909-9.281 7.185-20.602 11.091-32.53 11.091h-11.303c-17.954 0-34.254-11.295-40.559-28.106-11.639-31.04-41.731-51.894-74.88-51.894-26.744 0-50.447 13.209-64.974 33.431-14.527-20.222-38.23-33.431-64.974-33.431-33.149 0-63.242 20.854-74.881 51.894-6.304 16.811-22.603 28.106-40.559 28.106h-11.302c-11.928 0-23.25-3.906-32.53-11.091 2.727-10.851 12.562-18.909 24.246-18.909 8.284 0 15-6.716 15-15s-6.716-15-15-15c-30.327 0-55 24.673-55 55 0 52.383 42.617 95 95 95h84.974c31.283 0 58.885-16.042 75.026-40.328 16.141 24.286 43.744 40.328 75.026 40.328h84.974c52.383 0 95-42.617 95-95 0-30.327-24.673-55-55-55z" fill="#ffffff" data-original="#000000" style=""/><g><path d="m416 200h-84.974c-4.847 0-9.647-.309-14.389-.882-13.637 18.712-35.71 30.882-60.637 30.882s-47-12.17-60.638-30.882c-4.741.574-9.542.882-14.389.882h-84.973c-23.791 0-46.049-6.683-65-18.267v75.267c0 38.004 14.677 73.542 40 100.058v-70.058c0-8.284 6.716-15 15-15s15 6.716 15 15v80c0 5.027.396 9.964 1.152 14.782.002.001.005.003.007.004 5.531 35.235 30.492 64.108 63.543 75.259-3.095-10.948-4.702-22.329-4.702-33.897v-46.148c0-8.284 6.716-15 15-15s15 6.716 15 15v46.148c0 13.517 2.869 26.702 8.357 38.852h-.079c9.807 21.868 27.801 39.587 51.151 48.927 1.788.716 3.679 1.073 5.571 1.073s3.783-.357 5.57-1.073c23.351-9.34 41.345-27.059 51.151-48.927h-.079c5.489-12.15 8.358-25.335 8.358-38.852v-46.148c0-8.284 6.716-15 15-15s15 6.716 15 15v46.148c0 11.568-1.607 22.949-4.701 33.897 33.051-11.151 58.011-40.024 63.542-75.259.002-.001.005-.003.007-.004.756-4.818 1.152-9.755 1.152-14.782v-80c0-8.284 6.716-15 15-15s15 6.716 15 15v70.058c25.323-26.517 40-62.054 40-100.058v-75.268c-18.951 11.585-41.209 18.268-65 18.268z" fill="#ffffff" data-original="#000000" style=""/></g></g></g></svg>
